<?xml version="1.0" encoding="UTF-8" standalone="no"?><!DOCTYPE svg PUBLIC "-//W3C//DTD SVG 1.1//EN" "http://www.w3.org/Graphics/SVG/1.1/DTD/svg11.dtd"><svg width="100%" height="100%" viewBox="0 0 152 30" version="1.1" xmlns="http://www.w3.org/2000/svg" xmlns:xlink="http://www.w3.org/1999/xlink" xml:space="preserve" xmlns:serif="http://www.serif.com/" style="fill-rule:evenodd;clip-rule:evenodd;stroke-linejoin:round;stroke-miterlimit:1.41421;"><g id="Logo-witth-text" serif:id="Logo witth text"><g><g><path d="M19.728,0.391l0,29.592l-19.728,0l0,-29.592l19.728,0Zm-1.973,1.973l-15.782,0l0,25.646l15.782,0l0,-25.646Z" style="fill:#309ddb;"/><rect x="3.946" y="4.336" width="11.837" height="5.918" style="fill:#309ddb;"/><rect x="3.946" y="12.228" width="11.837" height="5.918" style="fill:#309ddb;"/><rect x="3.946" y="20.119" width="11.837" height="5.918" style="fill:#309ddb;"/></g><g><path d="M0,29.983l19.728,-29.592l-19.728,0l0,29.592Z" style="fill:#fff;fill-opacity:0.5;"/></g></g><g id="Interval"><rect x="31.728" y="1.972" width="5.538" height="27.612" style="fill:#fff;"/><path d="M45.839,9.065l0.247,2.94c0.682,-1.05 1.523,-1.865 2.522,-2.447c0.999,-0.581 2.117,-0.872 3.357,-0.872c2.073,0 3.691,0.651 4.855,1.953c1.163,1.302 1.744,3.344 1.744,6.126l0,12.82l-5.556,0l0,-12.831c0,-1.381 -0.278,-2.36 -0.835,-2.936c-0.556,-0.577 -1.397,-0.865 -2.522,-0.865c-0.733,0 -1.391,0.149 -1.972,0.447c-0.582,0.297 -1.069,0.719 -1.461,1.263l0,14.922l-5.537,0l0,-20.52l5.158,0Z" style="fill:#fff;fill-rule:nonzero;"/><path d="M68.502,4.04l0,5.025l3.452,0l0,3.888l-3.452,0l0,10.449c0,0.797 0.165,1.366 0.494,1.707c0.328,0.341 0.77,0.512 1.327,0.512c0.291,0 0.54,-0.016 0.749,-0.047c0.209,-0.032 0.452,-0.086 0.73,-0.162l0.474,4.002c-0.556,0.19 -1.1,0.332 -1.631,0.427c-0.531,0.094 -1.106,0.142 -1.725,0.142c-1.91,0 -3.379,-0.525 -4.41,-1.574c-1.03,-1.05 -1.545,-2.712 -1.545,-4.988l0,-10.468l-2.997,0l0,-3.888l2.997,0l0,-5.025l5.537,0Z" style="fill:#fff;fill-rule:nonzero;"/><path d="M82.519,12.953c-1.025,0 -1.834,0.392 -2.428,1.176c-0.594,0.784 -0.961,1.814 -1.1,3.091l0.057,0.094l6.789,0l0,-0.492c0,-1.176 -0.275,-2.115 -0.825,-2.817c-0.55,-0.702 -1.381,-1.052 -2.493,-1.052m0.493,17.03c-2.959,0 -5.323,-0.948 -7.093,-2.845c-1.77,-1.896 -2.655,-4.305 -2.655,-7.225l0,-0.759c0,-3.047 0.837,-5.556 2.513,-7.529c1.675,-1.972 3.922,-2.952 6.742,-2.939c2.768,0 4.918,0.834 6.447,2.503c1.53,1.669 2.295,3.926 2.295,6.77l0,3.016l-12.251,0l-0.038,0.113c0.101,1.348 0.553,2.456 1.356,3.325c0.803,0.868 1.893,1.303 3.271,1.303c1.227,0 2.245,-0.123 3.054,-0.37c0.809,-0.247 1.694,-0.635 2.655,-1.166l1.498,3.422c-0.835,0.686 -1.928,1.254 -3.281,1.705c-1.353,0.45 -2.857,0.676 -4.513,0.676" style="fill:#fff;fill-rule:nonzero;"/><path d="M104.499,13.825l-2.029,-0.057c-0.822,0 -1.498,0.171 -2.029,0.512c-0.531,0.342 -0.936,0.822 -1.214,1.442l0,13.863l-5.519,0l0,-20.52l5.14,0l0.246,3.034c0.48,-1.074 1.103,-1.912 1.868,-2.512c0.765,-0.601 1.647,-0.901 2.646,-0.901c0.278,0 0.534,0.022 0.768,0.066c0.234,0.045 0.471,0.098 0.711,0.161l-0.588,4.912Z" style="fill:#fff;fill-rule:nonzero;"/><path d="M115.265,21.942l0.36,1.896l0.114,0l0.379,-1.896l3.376,-12.877l5.784,0l-6.979,20.519l-5.291,0l-6.979,-20.519l5.784,0l3.452,12.877Z" style="fill:#fff;fill-rule:nonzero;"/><path d="M132.801,25.886c0.973,0 1.839,-0.24 2.598,-0.72c0.758,-0.481 1.271,-1.037 1.536,-1.669l0,-2.902l-3.091,0c-1.176,0 -2.067,0.294 -2.674,0.882c-0.607,0.588 -0.91,1.299 -0.91,2.134c0,0.683 0.227,1.232 0.682,1.65c0.455,0.417 1.075,0.625 1.859,0.625m5.063,3.699c-0.202,-0.468 -0.376,-0.961 -0.521,-1.48c-0.146,-0.518 -0.25,-1.049 -0.313,-1.593c-0.569,0.999 -1.318,1.827 -2.247,2.485c-0.93,0.657 -2.039,0.986 -3.329,0.986c-2.149,0 -3.805,-0.553 -4.968,-1.66c-1.163,-1.106 -1.745,-2.613 -1.745,-4.523c0,-2.01 0.774,-3.568 2.323,-4.674c1.549,-1.106 3.809,-1.66 6.78,-1.66l3.091,0l0,-1.631c0,-0.986 -0.259,-1.751 -0.778,-2.294c-0.518,-0.544 -1.283,-0.816 -2.294,-0.816c-0.898,0 -1.59,0.218 -2.077,0.654c-0.487,0.437 -0.73,1.041 -0.73,1.811l-5.348,-0.018l-0.019,-0.114c-0.088,-1.732 0.664,-3.227 2.257,-4.485c1.593,-1.258 3.685,-1.887 6.277,-1.887c2.453,0 4.444,0.623 5.974,1.868c1.529,1.245 2.295,3.018 2.295,5.319l0,8.477c0,0.961 0.072,1.865 0.217,2.712c0.146,0.847 0.377,1.688 0.693,2.523l-5.538,0Z" style="fill:#fff;fill-rule:nonzero;"/><rect x="146.19" y="0" width="5.538" height="29.584" style="fill:#fff;"/></g></g></svg>