<?xml version="1.0" encoding="UTF-8" standalone="no"?><!DOCTYPE svg PUBLIC "-//W3C//DTD SVG 1.1//EN" "http://www.w3.org/Graphics/SVG/1.1/DTD/svg11.dtd"><svg width="100%" height="100%" viewBox="0 0 465 465" version="1.1" xmlns="http://www.w3.org/2000/svg" xmlns:xlink="http://www.w3.org/1999/xlink" xml:space="preserve" xmlns:serif="http://www.serif.com/" style="fill-rule:evenodd;clip-rule:evenodd;stroke-linejoin:round;stroke-miterlimit:1.41421;"><g><circle cx="232.5" cy="232.5" r="225" style="fill:#414042;fill-opacity:0.72;"/><path d="M232.5,0c128.32,0 232.5,104.18 232.5,232.5c0,128.32 -104.18,232.5 -232.5,232.5c-128.32,0 -232.5,-104.18 -232.5,-232.5c0,-128.32 104.18,-232.5 232.5,-232.5Zm0,2.527c126.925,0 229.973,103.048 229.973,229.973c0,126.925 -103.048,229.973 -229.973,229.973c-126.925,0 -229.973,-103.048 -229.973,-229.973c0,-126.925 103.048,-229.973 229.973,-229.973Z" style="fill:#fff;"/><path d="M232.5,7.5c124.181,0 225,100.819 225,225c0,124.181 -100.819,225 -225,225c-124.181,0 -225,-100.819 -225,-225c0,-124.181 100.819,-225 225,-225Zm0,12.5c117.282,0 212.5,95.218 212.5,212.5c0,117.282 -95.218,212.5 -212.5,212.5c-117.282,0 -212.5,-95.218 -212.5,-212.5c0,-117.282 95.218,-212.5 212.5,-212.5Z" style="fill:#fff;"/><g><g><rect x="298.659" y="145.215" width="21.341" height="25.61" style="fill:#fff;"/><rect x="298.659" y="175.093" width="21.341" height="25.61" style="fill:#fff;fill-opacity:0.75;"/><rect x="145" y="175.093" width="21.341" height="25.61" style="fill:#fff;fill-opacity:0.75;"/><rect x="273.049" y="175.093" width="21.341" height="38.415" style="fill:#fff;fill-opacity:0.75;"/><rect x="170.61" y="175.093" width="21.341" height="38.415" style="fill:#fff;fill-opacity:0.75;"/><rect x="247.439" y="175.093" width="21.341" height="51.22" style="fill:#fff;fill-opacity:0.75;"/><rect x="221.829" y="175.093" width="21.341" height="64.024" style="fill:#fff;fill-opacity:0.75;"/><rect x="196.22" y="175.093" width="21.341" height="51.22" style="fill:#fff;fill-opacity:0.75;"/><rect x="221.829" y="145.215" width="21.341" height="25.61" style="fill:#fff;"/><rect x="170.046" y="123.873" width="21.341" height="46.951" style="fill:#fff;"/><rect x="273.049" y="123.873" width="21.341" height="46.951" style="fill:#fff;"/><rect x="196.22" y="132.41" width="21.341" height="38.415" style="fill:#fff;"/><rect x="247.439" y="132.41" width="21.341" height="38.415" style="fill:#fff;"/><rect x="145" y="145.215" width="21.341" height="25.61" style="fill:#fff;"/></g><g><rect x="103.79" y="254.713" width="11.882" height="59.245" style="fill:#fff;fill-rule:nonzero;"/><path d="M134.4,269.931l0.529,6.307c1.465,-2.252 3.269,-4.001 5.412,-5.249c2.143,-1.248 4.543,-1.872 7.202,-1.872c4.449,0 7.921,1.397 10.416,4.191c2.496,2.794 3.744,7.175 3.744,13.143l0,27.507l-11.922,0l0,-27.466c0,-2.957 -0.597,-5.052 -1.791,-6.287c-1.193,-1.234 -2.997,-1.851 -5.411,-1.851c-1.574,0 -2.984,0.319 -4.232,0.956c-1.248,0.638 -2.292,1.54 -3.133,2.706l0,31.942l-11.882,0l0,-44.027l11.068,0Z" style="fill:#fff;fill-rule:nonzero;"/><path d="M183.693,259.148l0,10.783l7.405,0l0,8.341l-7.405,0l0,22.421c0,1.709 0.353,2.929 1.058,3.662c0.705,0.732 1.655,1.098 2.848,1.098c0.624,0 1.16,-0.033 1.607,-0.101c0.448,-0.068 0.97,-0.183 1.567,-0.346l1.017,8.585c-1.193,0.407 -2.36,0.713 -3.499,0.916c-1.139,0.203 -2.374,0.305 -3.703,0.305c-4.096,0 -7.25,-1.126 -9.46,-3.377c-2.211,-2.252 -3.317,-5.819 -3.317,-10.702l0,-22.461l-6.429,0l0,-8.341l6.429,0l0,-10.783l11.882,0Z" style="fill:#fff;fill-rule:nonzero;"/><path d="M214.157,314.812c-6.347,0 -11.42,-2.034 -15.218,-6.103c-3.797,-4.069 -5.696,-9.237 -5.696,-15.503l0,-1.628c0,-6.537 1.797,-11.922 5.391,-16.154c3.594,-4.232 8.416,-6.334 14.465,-6.307c5.941,0 10.553,1.791 13.835,5.371c3.282,3.581 4.924,8.423 4.924,14.527l0,6.469l-26.286,0l-0.082,0.245c0.217,2.902 1.187,5.289 2.91,7.161c1.722,1.872 4.062,2.808 7.019,2.808c2.631,0 4.815,-0.265 6.551,-0.794c1.736,-0.529 3.635,-1.363 5.697,-2.502l3.214,7.324c-1.79,1.465 -4.137,2.679 -7.039,3.642c-2.903,0.963 -6.131,1.444 -9.685,1.444Zm-1.058,-36.54c-2.197,0 -3.933,0.841 -5.208,2.523c-1.275,1.682 -2.062,3.893 -2.36,6.633l0.122,0.203l14.567,0l0,-1.058c0,-2.523 -0.59,-4.537 -1.77,-6.042c-1.18,-1.506 -2.963,-2.259 -5.351,-2.259Z" style="fill:#fff;fill-rule:nonzero;"/><path d="M260.928,280.144l-4.354,-0.122c-1.764,0 -3.215,0.366 -4.354,1.099c-1.139,0.732 -2.007,1.763 -2.604,3.092l0,29.745l-11.841,0l0,-44.027l11.027,0l0.529,6.51c1.031,-2.305 2.367,-4.103 4.008,-5.391c1.641,-1.289 3.533,-1.933 5.676,-1.933c0.597,0 1.146,0.048 1.648,0.143c0.502,0.095 1.011,0.21 1.526,0.345l-1.261,10.539Z" style="fill:#fff;fill-rule:nonzero;"/><path d="M283.999,297.56l0.773,4.069l0.244,0l0.814,-4.069l7.243,-27.629l12.41,0l-14.974,44.027l-11.352,0l-14.974,-44.027l12.41,0l7.406,27.629Z" style="fill:#fff;fill-rule:nonzero;"/><path d="M331.797,313.958c-0.434,-1.004 -0.807,-2.062 -1.119,-3.174c-0.312,-1.112 -0.535,-2.252 -0.671,-3.418c-1.221,2.143 -2.828,3.92 -4.822,5.33c-1.994,1.411 -4.374,2.116 -7.141,2.116c-4.611,0 -8.165,-1.187 -10.661,-3.56c-2.495,-2.374 -3.743,-5.609 -3.743,-9.705c0,-4.313 1.661,-7.656 4.984,-10.03c3.323,-2.373 8.172,-3.56 14.547,-3.56l6.633,0l0,-3.5c0,-2.116 -0.557,-3.757 -1.669,-4.923c-1.112,-1.167 -2.753,-1.75 -4.923,-1.75c-1.926,0 -3.411,0.468 -4.456,1.404c-1.044,0.936 -1.566,2.231 -1.566,3.886l-11.475,-0.041l-0.041,-0.244c-0.19,-3.716 1.424,-6.924 4.842,-9.623c3.418,-2.699 7.908,-4.049 13.469,-4.049c5.262,0 9.535,1.336 12.817,4.008c3.283,2.672 4.924,6.477 4.924,11.414l0,18.188c0,2.062 0.156,4.001 0.468,5.819c0.312,1.817 0.807,3.621 1.485,5.412l-11.882,0Zm-10.864,-7.935c2.089,0 3.947,-0.515 5.575,-1.546c1.627,-1.031 2.726,-2.225 3.296,-3.581l0,-6.225l-6.633,0c-2.523,0 -4.435,0.63 -5.737,1.892c-1.302,1.261 -1.953,2.787 -1.953,4.577c0,1.465 0.488,2.645 1.464,3.54c0.977,0.896 2.306,1.343 3.988,1.343Z" style="fill:#fff;fill-rule:nonzero;"/><rect x="349.329" y="250.481" width="11.882" height="63.477" style="fill:#fff;fill-rule:nonzero;"/></g><g><path d="M147.116,336.681l-1.037,0l0,-8.923l4.974,0l0,0.922l-3.937,0l0,3.265l3.699,0l0,0.922l-3.699,0l0,3.814Z" style="fill:#fff;fill-opacity:0.75;fill-rule:nonzero;"/><path d="M153.391,336.681l-1.014,0l0,-6.689l1.014,0l0,6.689Zm-1.099,-8.502c0,-0.232 0.057,-0.402 0.171,-0.51c0.114,-0.107 0.256,-0.161 0.427,-0.161c0.163,0 0.303,0.055 0.421,0.165c0.118,0.109 0.177,0.278 0.177,0.506c0,0.228 -0.059,0.398 -0.177,0.51c-0.118,0.112 -0.258,0.168 -0.421,0.168c-0.171,0 -0.313,-0.056 -0.427,-0.168c-0.114,-0.112 -0.171,-0.282 -0.171,-0.51Z" style="fill:#fff;fill-opacity:0.75;fill-rule:nonzero;"/><path d="M157.7,335.967c0.179,0 0.352,-0.013 0.518,-0.039c0.167,-0.027 0.3,-0.054 0.397,-0.083l0,0.775c-0.11,0.053 -0.271,0.097 -0.485,0.132c-0.214,0.034 -0.406,0.051 -0.577,0.051c-1.294,0 -1.941,-0.681 -1.941,-2.044l0,-3.98l-0.958,0l0,-0.488l0.958,-0.421l0.428,-1.428l0.585,0l0,1.55l1.941,0l0,0.787l-1.941,0l0,3.937c0,0.403 0.096,0.712 0.287,0.928c0.192,0.215 0.454,0.323 0.788,0.323Z" style="fill:#fff;fill-opacity:0.75;fill-rule:nonzero;"/><path d="M164.529,336.681l0,-4.327c0,-0.545 -0.124,-0.952 -0.372,-1.221c-0.248,-0.268 -0.637,-0.403 -1.166,-0.403c-0.699,0 -1.212,0.19 -1.538,0.568c-0.325,0.378 -0.488,1.003 -0.488,1.874l0,3.509l-1.013,0l0,-6.689l0.824,0l0.165,0.915l0.048,0c0.208,-0.329 0.499,-0.585 0.873,-0.766c0.375,-0.181 0.792,-0.271 1.251,-0.271c0.806,0 1.412,0.194 1.819,0.583c0.407,0.388 0.611,1.01 0.611,1.864l0,4.364l-1.014,0Z" style="fill:#fff;fill-opacity:0.75;fill-rule:nonzero;"/><path d="M170.075,336.803c-0.989,0 -1.769,-0.301 -2.341,-0.903c-0.571,-0.602 -0.857,-1.438 -0.857,-2.508c0,-1.079 0.265,-1.935 0.796,-2.57c0.531,-0.635 1.244,-0.952 2.139,-0.952c0.839,0 1.502,0.275 1.99,0.827c0.488,0.551 0.733,1.279 0.733,2.182l0,0.641l-4.609,0c0.021,0.785 0.219,1.381 0.596,1.788c0.376,0.407 0.906,0.61 1.59,0.61c0.72,0 1.432,-0.15 2.136,-0.451l0,0.903c-0.358,0.155 -0.697,0.266 -1.016,0.333c-0.32,0.067 -0.705,0.1 -1.157,0.1Zm-0.275,-6.085c-0.537,0 -0.965,0.175 -1.285,0.525c-0.319,0.35 -0.507,0.834 -0.564,1.453l3.497,0c0,-0.639 -0.142,-1.128 -0.427,-1.468c-0.285,-0.34 -0.692,-0.51 -1.221,-0.51Z" style="fill:#fff;fill-opacity:0.75;fill-rule:nonzero;"/><path d="M178.577,334.856c0,0.623 -0.232,1.103 -0.696,1.441c-0.464,0.338 -1.115,0.506 -1.953,0.506c-0.887,0 -1.579,-0.14 -2.075,-0.421l0,-0.94c0.321,0.163 0.666,0.291 1.035,0.385c0.368,0.093 0.723,0.14 1.065,0.14c0.529,0 0.935,-0.084 1.22,-0.253c0.285,-0.169 0.428,-0.426 0.428,-0.772c0,-0.261 -0.113,-0.483 -0.339,-0.669c-0.226,-0.185 -0.667,-0.403 -1.322,-0.656c-0.622,-0.232 -1.065,-0.434 -1.327,-0.607c-0.263,-0.173 -0.458,-0.369 -0.586,-0.589c-0.128,-0.22 -0.192,-0.482 -0.192,-0.787c0,-0.546 0.221,-0.976 0.665,-1.291c0.443,-0.316 1.052,-0.473 1.825,-0.473c0.72,0 1.424,0.146 2.112,0.439l-0.36,0.824c-0.672,-0.276 -1.28,-0.415 -1.825,-0.415c-0.48,0 -0.843,0.075 -1.087,0.226c-0.244,0.151 -0.366,0.358 -0.366,0.623c0,0.179 0.046,0.331 0.137,0.457c0.092,0.126 0.239,0.247 0.443,0.36c0.203,0.114 0.594,0.279 1.172,0.495c0.793,0.289 1.329,0.58 1.608,0.873c0.279,0.293 0.418,0.661 0.418,1.104Z" style="fill:#fff;fill-opacity:0.75;fill-rule:nonzero;"/><path d="M184.54,334.856c0,0.623 -0.232,1.103 -0.696,1.441c-0.463,0.338 -1.114,0.506 -1.953,0.506c-0.887,0 -1.578,-0.14 -2.075,-0.421l0,-0.94c0.322,0.163 0.666,0.291 1.035,0.385c0.368,0.093 0.723,0.14 1.065,0.14c0.529,0 0.936,-0.084 1.22,-0.253c0.285,-0.169 0.428,-0.426 0.428,-0.772c0,-0.261 -0.113,-0.483 -0.339,-0.669c-0.226,-0.185 -0.666,-0.403 -1.321,-0.656c-0.623,-0.232 -1.066,-0.434 -1.328,-0.607c-0.262,-0.173 -0.458,-0.369 -0.586,-0.589c-0.128,-0.22 -0.192,-0.482 -0.192,-0.787c0,-0.546 0.222,-0.976 0.665,-1.291c0.444,-0.316 1.052,-0.473 1.825,-0.473c0.72,0 1.424,0.146 2.112,0.439l-0.36,0.824c-0.672,-0.276 -1.28,-0.415 -1.825,-0.415c-0.48,0 -0.842,0.075 -1.087,0.226c-0.244,0.151 -0.366,0.358 -0.366,0.623c0,0.179 0.046,0.331 0.137,0.457c0.092,0.126 0.24,0.247 0.443,0.36c0.203,0.114 0.594,0.279 1.172,0.495c0.793,0.289 1.329,0.58 1.608,0.873c0.279,0.293 0.418,0.661 0.418,1.104Z" style="fill:#fff;fill-opacity:0.75;fill-rule:nonzero;"/><path d="M191.596,335.967c0.179,0 0.352,-0.013 0.519,-0.039c0.167,-0.027 0.299,-0.054 0.396,-0.083l0,0.775c-0.109,0.053 -0.271,0.097 -0.485,0.132c-0.213,0.034 -0.406,0.051 -0.577,0.051c-1.294,0 -1.94,-0.681 -1.94,-2.044l0,-3.98l-0.959,0l0,-0.488l0.959,-0.421l0.427,-1.428l0.586,0l0,1.55l1.941,0l0,0.787l-1.941,0l0,3.937c0,0.403 0.095,0.712 0.287,0.928c0.191,0.215 0.453,0.323 0.787,0.323Z" style="fill:#fff;fill-opacity:0.75;fill-rule:nonzero;"/><path d="M194.861,336.681l-1.013,0l0,-6.689l1.013,0l0,6.689Zm-1.098,-8.502c0,-0.232 0.057,-0.402 0.171,-0.51c0.113,-0.107 0.256,-0.161 0.427,-0.161c0.163,0 0.303,0.055 0.421,0.165c0.118,0.109 0.177,0.278 0.177,0.506c0,0.228 -0.059,0.398 -0.177,0.51c-0.118,0.112 -0.258,0.168 -0.421,0.168c-0.171,0 -0.314,-0.056 -0.427,-0.168c-0.114,-0.112 -0.171,-0.282 -0.171,-0.51Z" style="fill:#fff;fill-opacity:0.75;fill-rule:nonzero;"/><path d="M205.536,336.681l0,-4.351c0,-0.534 -0.114,-0.933 -0.341,-1.2c-0.228,-0.266 -0.582,-0.4 -1.062,-0.4c-0.631,0 -1.097,0.181 -1.398,0.544c-0.301,0.362 -0.452,0.919 -0.452,1.672l0,3.735l-1.013,0l0,-4.351c0,-0.534 -0.114,-0.933 -0.342,-1.2c-0.228,-0.266 -0.584,-0.4 -1.068,-0.4c-0.635,0 -1.1,0.191 -1.395,0.571c-0.295,0.381 -0.442,1.004 -0.442,1.871l0,3.509l-1.013,0l0,-6.689l0.824,0l0.164,0.915l0.049,0c0.192,-0.325 0.461,-0.579 0.809,-0.763c0.348,-0.183 0.738,-0.274 1.169,-0.274c1.046,0 1.729,0.378 2.051,1.135l0.048,0c0.2,-0.35 0.489,-0.627 0.867,-0.83c0.379,-0.203 0.81,-0.305 1.294,-0.305c0.757,0 1.324,0.194 1.7,0.583c0.376,0.388 0.565,1.01 0.565,1.864l0,4.364l-1.014,0Z" style="fill:#fff;fill-opacity:0.75;fill-rule:nonzero;"/><path d="M211.463,336.803c-0.989,0 -1.769,-0.301 -2.341,-0.903c-0.572,-0.602 -0.857,-1.438 -0.857,-2.508c0,-1.079 0.265,-1.935 0.796,-2.57c0.531,-0.635 1.244,-0.952 2.139,-0.952c0.839,0 1.502,0.275 1.99,0.827c0.488,0.551 0.733,1.279 0.733,2.182l0,0.641l-4.609,0c0.021,0.785 0.219,1.381 0.596,1.788c0.376,0.407 0.906,0.61 1.589,0.61c0.721,0 1.433,-0.15 2.137,-0.451l0,0.903c-0.358,0.155 -0.697,0.266 -1.017,0.333c-0.319,0.067 -0.704,0.1 -1.156,0.1Zm-0.275,-6.085c-0.537,0 -0.965,0.175 -1.285,0.525c-0.319,0.35 -0.507,0.834 -0.564,1.453l3.497,0c0,-0.639 -0.142,-1.128 -0.427,-1.468c-0.285,-0.34 -0.692,-0.51 -1.221,-0.51Z" style="fill:#fff;fill-opacity:0.75;fill-rule:nonzero;"/><path d="M218.702,329.87c0.297,0 0.563,0.024 0.799,0.073l-0.14,0.94c-0.277,-0.061 -0.521,-0.092 -0.733,-0.092c-0.541,0 -1.004,0.22 -1.388,0.66c-0.385,0.439 -0.577,0.986 -0.577,1.641l0,3.589l-1.013,0l0,-6.689l0.836,0l0.116,1.239l0.049,0c0.248,-0.436 0.547,-0.771 0.897,-1.007c0.35,-0.236 0.735,-0.354 1.154,-0.354Z" style="fill:#fff;fill-opacity:0.75;fill-rule:nonzero;"/><path d="M227.112,329.882c0.879,0 1.562,0.3 2.048,0.9c0.486,0.6 0.729,1.45 0.729,2.548c0,1.099 -0.245,1.953 -0.735,2.561c-0.49,0.608 -1.171,0.912 -2.042,0.912c-0.435,0 -0.833,-0.08 -1.193,-0.241c-0.36,-0.16 -0.662,-0.408 -0.906,-0.741l-0.074,0l-0.213,0.86l-0.727,0l0,-9.497l1.014,0l0,2.307c0,0.517 -0.017,0.981 -0.049,1.392l0.049,0c0.472,-0.667 1.172,-1.001 2.099,-1.001Zm-0.146,0.848c-0.692,0 -1.19,0.199 -1.496,0.595c-0.305,0.397 -0.457,1.066 -0.457,2.005c0,0.94 0.156,1.613 0.47,2.018c0.313,0.405 0.815,0.607 1.507,0.607c0.623,0 1.087,-0.227 1.392,-0.681c0.305,-0.453 0.458,-1.105 0.458,-1.956c0,-0.87 -0.153,-1.519 -0.458,-1.947c-0.305,-0.427 -0.777,-0.641 -1.416,-0.641Z" style="fill:#fff;fill-opacity:0.75;fill-rule:nonzero;"/><path d="M230.347,329.992l1.087,0l1.464,3.815c0.322,0.87 0.521,1.499 0.599,1.886l0.048,0c0.053,-0.208 0.164,-0.563 0.333,-1.066c0.169,-0.502 0.721,-2.047 1.657,-4.635l1.087,0l-2.875,7.617c-0.285,0.753 -0.618,1.287 -0.998,1.602c-0.381,0.316 -0.848,0.473 -1.401,0.473c-0.309,0 -0.614,-0.034 -0.915,-0.104l0,-0.811c0.223,0.049 0.474,0.073 0.75,0.073c0.696,0 1.193,-0.391 1.49,-1.172l0.372,-0.952l-2.698,-6.726Z" style="fill:#fff;fill-opacity:0.75;fill-rule:nonzero;"/><rect x="242.395" y="321.87" width="2.014" height="14.811" style="fill:#fff;fill-opacity:0.75;fill-rule:nonzero;"/><path d="M248.764,325.675l0.142,1.637c0.367,-0.583 0.826,-1.035 1.379,-1.358c0.552,-0.322 1.181,-0.483 1.887,-0.483c1.187,0 2.105,0.348 2.757,1.043c0.651,0.695 0.976,1.768 0.976,3.219l0,6.948l-2.004,0l0,-6.907c0,-0.97 -0.191,-1.658 -0.575,-2.065c-0.383,-0.407 -0.968,-0.61 -1.754,-0.61c-0.577,0 -1.087,0.139 -1.531,0.417c-0.445,0.278 -0.799,0.658 -1.063,1.139l0,8.026l-2.004,0l0,-11.006l1.79,0Z" style="fill:#fff;fill-opacity:0.75;fill-rule:nonzero;"/><path d="M260.626,323.02l0,2.655l2.085,0l0,1.485l-2.085,0l0,6.683c0,0.516 0.107,0.878 0.32,1.089c0.214,0.21 0.497,0.315 0.85,0.315c0.115,0 0.242,-0.014 0.381,-0.041c0.139,-0.027 0.263,-0.061 0.372,-0.101l0.264,1.373c-0.149,0.122 -0.368,0.222 -0.656,0.3c-0.288,0.078 -0.578,0.117 -0.87,0.117c-0.814,0 -1.461,-0.246 -1.943,-0.738c-0.481,-0.491 -0.722,-1.263 -0.722,-2.314l0,-6.683l-1.75,0l0,-1.485l1.75,0l0,-2.655l2.004,0Z" style="fill:#fff;fill-opacity:0.75;fill-rule:nonzero;"/><path d="M268.917,336.895c-1.532,0 -2.751,-0.51 -3.657,-1.531c-0.905,-1.021 -1.358,-2.345 -1.358,-3.972l0,-0.448c0,-1.567 0.467,-2.87 1.399,-3.911c0.933,-1.041 2.036,-1.562 3.311,-1.562c1.485,0 2.608,0.448 3.367,1.343c0.76,0.895 1.14,2.089 1.14,3.581l0,1.251l-7.141,0l-0.031,0.051c0.02,1.058 0.288,1.927 0.804,2.609c0.515,0.682 1.237,1.022 2.166,1.022c0.679,0 1.274,-0.096 1.786,-0.29c0.512,-0.193 0.954,-0.459 1.327,-0.798l0.783,1.302c-0.393,0.387 -0.912,0.709 -1.556,0.966c-0.644,0.258 -1.424,0.387 -2.34,0.387Zm-0.305,-9.847c-0.671,0 -1.244,0.283 -1.719,0.849c-0.475,0.567 -0.766,1.277 -0.875,2.131l0.021,0.051l5.076,0l0,-0.264c0,-0.787 -0.211,-1.445 -0.631,-1.974c-0.421,-0.529 -1.044,-0.793 -1.872,-0.793Z" style="fill:#fff;fill-opacity:0.75;fill-rule:nonzero;"/><path d="M276.949,325.675l0.142,1.637c0.366,-0.583 0.826,-1.035 1.379,-1.358c0.552,-0.322 1.181,-0.483 1.887,-0.483c1.186,0 2.105,0.348 2.756,1.043c0.651,0.695 0.977,1.768 0.977,3.219l0,6.948l-2.004,0l0,-6.907c0,-0.97 -0.192,-1.658 -0.575,-2.065c-0.383,-0.407 -0.968,-0.61 -1.755,-0.61c-0.576,0 -1.086,0.139 -1.531,0.417c-0.444,0.278 -0.798,0.658 -1.063,1.139l0,8.026l-2.004,0l0,-11.006l1.791,0Z" style="fill:#fff;fill-opacity:0.75;fill-rule:nonzero;"/><path d="M290.886,334.616c0.529,0 0.952,-0.154 1.271,-0.463c0.319,-0.308 0.478,-0.72 0.478,-1.236l2.696,0l0.03,0.062c0.028,1.112 -0.391,2.043 -1.256,2.792c-0.865,0.749 -1.938,1.124 -3.219,1.124c-1.642,0 -2.906,-0.519 -3.795,-1.556c-0.888,-1.038 -1.332,-2.371 -1.332,-3.998l0,-0.305c0,-1.621 0.442,-2.954 1.327,-3.998c0.885,-1.045 2.148,-1.567 3.789,-1.567c1.357,0 2.45,0.387 3.281,1.16c0.831,0.773 1.233,1.79 1.205,3.052l-0.02,0.061l-2.706,0c0,-0.57 -0.156,-1.043 -0.468,-1.419c-0.312,-0.377 -0.742,-0.565 -1.292,-0.565c-0.786,0 -1.341,0.305 -1.663,0.916c-0.322,0.61 -0.483,1.397 -0.483,2.36l0,0.305c0,0.983 0.161,1.775 0.483,2.375c0.322,0.6 0.88,0.9 1.674,0.9Z" style="fill:#fff;fill-opacity:0.75;fill-rule:nonzero;"/><path d="M299.965,336.681l-2.971,0l0,-11.006l2.971,0l0,11.006Zm0,-13.641l-2.971,0l0,-2.228l2.971,0l0,2.228Z" style="fill:#fff;fill-opacity:0.75;fill-rule:nonzero;"/><path d="M305.728,322.979l0,2.696l1.851,0l0,2.085l-1.851,0l0,5.605c0,0.427 0.088,0.732 0.264,0.916c0.176,0.183 0.414,0.274 0.712,0.274c0.156,0 0.29,-0.008 0.402,-0.025c0.112,-0.017 0.242,-0.046 0.392,-0.087l0.254,2.147c-0.298,0.101 -0.59,0.178 -0.875,0.229c-0.285,0.051 -0.593,0.076 -0.926,0.076c-1.024,0 -1.812,-0.281 -2.365,-0.844c-0.552,-0.563 -0.829,-1.455 -0.829,-2.676l0,-5.615l-1.607,0l0,-2.085l1.607,0l0,-2.696l2.971,0Z" style="fill:#fff;fill-opacity:0.75;fill-rule:nonzero;"/><path d="M313.438,332.063l0.123,0.61l0.061,0l2.105,-6.998l3.194,0l-4.465,12.654c-0.312,0.787 -0.736,1.45 -1.272,1.989c-0.536,0.539 -1.339,0.809 -2.411,0.809c-0.251,0 -0.483,-0.021 -0.697,-0.061c-0.213,-0.041 -0.473,-0.099 -0.778,-0.173l0.346,-2.167c0.088,0.014 0.183,0.027 0.285,0.041c0.102,0.013 0.193,0.02 0.275,0.02c0.488,0 0.864,-0.12 1.129,-0.361c0.264,-0.241 0.468,-0.541 0.61,-0.9l0.346,-0.855l-3.906,-10.996l3.194,0l1.861,6.388Z" style="fill:#fff;fill-opacity:0.75;fill-rule:nonzero;"/></g></g></g></svg>