<?xml version="1.0" encoding="UTF-8" standalone="no"?><!DOCTYPE svg PUBLIC "-//W3C//DTD SVG 1.1//EN" "http://www.w3.org/Graphics/SVG/1.1/DTD/svg11.dtd"><svg width="100%" height="100%" viewBox="0 0 93 16" version="1.1" xmlns="http://www.w3.org/2000/svg" xmlns:xlink="http://www.w3.org/1999/xlink" xml:space="preserve" xmlns:serif="http://www.serif.com/" style="fill-rule:evenodd;clip-rule:evenodd;stroke-linejoin:round;stroke-miterlimit:1.41421;"><g><g><g><g><rect x="0" y="2.927" width="2.927" height="3.512" style="fill:#309ddb;"/></g><g><rect x="21.073" y="2.927" width="2.927" height="3.512" style="fill:#309ddb;"/><path d="M21.073,2.927l2.342,0l0.585,0.585l0,2.927l-2.927,0l0,-3.512Z" style="fill:#414042;fill-opacity:0.1;"/></g><g><rect x="21.073" y="7.024" width="2.927" height="3.512" style="fill:#647082;"/><rect x="21.073" y="7.024" width="2.927" height="3.512" style="fill:#414042;fill-opacity:0.25;"/></g><g><rect x="0" y="7.024" width="2.927" height="3.512" style="fill:#647082;"/><rect x="0" y="7.024" width="2.927" height="3.512" style="fill:#414042;fill-opacity:0.25;"/></g><g><rect x="17.561" y="7.024" width="2.927" height="5.268" style="fill:#647082;"/><rect x="17.561" y="7.024" width="2.927" height="5.268" style="fill:#414042;fill-opacity:0.25;"/></g><g><rect x="3.512" y="7.024" width="2.927" height="5.268" style="fill:#647082;"/><rect x="3.512" y="7.024" width="2.927" height="5.268" style="fill:#414042;fill-opacity:0.25;"/></g><g><rect x="14.049" y="7.024" width="2.927" height="7.024" style="fill:#647082;"/><rect x="14.049" y="7.024" width="2.927" height="7.024" style="fill:#414042;fill-opacity:0.25;"/></g><g><rect x="10.537" y="7.024" width="2.927" height="8.78" style="fill:#647082;"/><rect x="10.537" y="7.024" width="2.927" height="8.78" style="fill:#414042;fill-opacity:0.25;"/></g><g><rect x="7.024" y="7.024" width="2.927" height="7.024" style="fill:#647082;"/><rect x="7.024" y="7.024" width="2.927" height="7.024" style="fill:#414042;fill-opacity:0.25;"/></g><g><rect x="10.537" y="2.927" width="2.927" height="3.512" style="fill:#309ddb;"/><path d="M10.537,2.927l1.169,0l1.757,1.757l0,1.755l-2.926,0l0,-3.512Z" style="fill:#414042;fill-opacity:0.1;"/></g><g><rect x="3.435" y="0" width="2.927" height="6.439" style="fill:#309ddb;"/><path d="M3.435,3.433l2.927,2.927l0,0.079l-2.927,0l0,-3.006Z" style="fill:#414042;fill-opacity:0.1;"/></g><g><rect x="17.561" y="0" width="2.927" height="6.439" style="fill:#309ddb;"/><path d="M17.561,1.754l2.927,2.927l0,1.758l-2.927,0l0,-4.685Z" style="fill:#414042;fill-opacity:0.1;"/></g><g><rect x="7.024" y="1.171" width="2.927" height="5.268" style="fill:#309ddb;"/><path d="M9.951,4.097l0,2.342l-2.927,0l0,-5.267l0.001,-0.001l2.926,2.926Z" style="fill:#414042;fill-opacity:0.1;"/></g><g><rect x="14.049" y="1.171" width="2.927" height="5.268" style="fill:#309ddb;"/><path d="M14.049,3.511l2.927,2.926l0,0.002l-2.927,0l0,-2.928Z" style="fill:#414042;fill-opacity:0.1;"/></g></g><g><rect x="31.2" y="1.198" width="2.852" height="14.219" style="fill:#309ddb;fill-rule:nonzero;"/><path d="M38.546,4.851l0.127,1.513c0.352,-0.54 0.785,-0.96 1.299,-1.259c0.515,-0.3 1.091,-0.45 1.729,-0.45c1.067,0 1.901,0.336 2.5,1.006c0.599,0.671 0.898,1.722 0.898,3.155l0,6.601l-2.861,0l0,-6.592c0,-0.709 -0.143,-1.212 -0.43,-1.508c-0.286,-0.297 -0.719,-0.445 -1.299,-0.445c-0.377,0 -0.716,0.077 -1.015,0.23c-0.3,0.153 -0.55,0.369 -0.752,0.649l0,7.666l-2.852,0l0,-10.566l2.656,0Z" style="fill:#309ddb;fill-rule:nonzero;"/><path d="M50.137,2.263l0,2.588l1.777,0l0,2.002l-1.777,0l0,5.38c0,0.411 0.084,0.704 0.254,0.879c0.169,0.176 0.397,0.264 0.683,0.264c0.15,0 0.279,-0.008 0.386,-0.024c0.107,-0.017 0.233,-0.044 0.376,-0.083l0.244,2.06c-0.286,0.098 -0.566,0.171 -0.84,0.22c-0.273,0.049 -0.569,0.073 -0.888,0.073c-0.984,0 -1.74,-0.27 -2.271,-0.81c-0.531,-0.541 -0.796,-1.397 -0.796,-2.569l0,-5.39l-1.543,0l0,-2.002l1.543,0l0,-2.588l2.852,0Z" style="fill:#309ddb;fill-rule:nonzero;"/><path d="M57.448,15.622c-1.523,0 -2.741,-0.488 -3.652,-1.465c-0.912,-0.976 -1.367,-2.216 -1.367,-3.72l0,-0.391c0,-1.569 0.431,-2.861 1.294,-3.877c0.862,-1.016 2.019,-1.52 3.471,-1.514c1.426,0 2.533,0.43 3.321,1.289c0.787,0.86 1.181,2.022 1.181,3.487l0,1.552l-6.308,0l-0.02,0.059c0.052,0.697 0.285,1.27 0.698,1.719c0.414,0.449 0.975,0.674 1.685,0.674c0.631,0 1.156,-0.064 1.572,-0.191c0.417,-0.127 0.873,-0.327 1.367,-0.6l0.772,1.757c-0.43,0.352 -0.993,0.643 -1.69,0.874c-0.696,0.232 -1.471,0.347 -2.324,0.347Zm-0.254,-8.769c-0.527,0 -0.944,0.201 -1.25,0.605c-0.306,0.404 -0.494,0.934 -0.566,1.592l0.029,0.049l3.496,0l0,-0.254c0,-0.606 -0.141,-1.089 -0.425,-1.45c-0.283,-0.362 -0.711,-0.542 -1.284,-0.542Z" style="fill:#309ddb;fill-rule:nonzero;"/><path d="M68.673,7.302l-1.045,-0.029c-0.423,0 -0.771,0.087 -1.045,0.263c-0.273,0.176 -0.482,0.423 -0.625,0.742l0,7.139l-2.842,0l0,-10.566l2.647,0l0.127,1.562c0.247,-0.553 0.568,-0.985 0.962,-1.294c0.394,-0.309 0.848,-0.464 1.362,-0.464c0.143,0 0.275,0.012 0.396,0.035c0.12,0.022 0.242,0.05 0.366,0.083l-0.303,2.529Z" style="fill:#309ddb;fill-rule:nonzero;"/><path d="M74.21,11.482l0.186,0.976l0.058,0l0.196,-0.976l1.738,-6.631l2.978,0l-3.593,10.566l-2.725,0l-3.594,-10.566l2.979,0l1.777,6.631Z" style="fill:#309ddb;fill-rule:nonzero;"/><path d="M85.682,15.417c-0.104,-0.241 -0.194,-0.495 -0.269,-0.762c-0.075,-0.267 -0.128,-0.54 -0.161,-0.82c-0.293,0.514 -0.679,0.941 -1.157,1.279c-0.479,0.339 -1.05,0.508 -1.714,0.508c-1.107,0 -1.96,-0.285 -2.559,-0.854c-0.599,-0.57 -0.898,-1.346 -0.898,-2.329c0,-1.036 0.399,-1.838 1.196,-2.408c0.798,-0.569 1.962,-0.854 3.491,-0.854l1.592,0l0,-0.84c0,-0.508 -0.133,-0.902 -0.4,-1.182c-0.267,-0.28 -0.661,-0.42 -1.182,-0.42c-0.462,0 -0.818,0.113 -1.069,0.337c-0.251,0.225 -0.376,0.536 -0.376,0.933l-2.754,-0.01l-0.01,-0.058c-0.045,-0.892 0.342,-1.662 1.162,-2.31c0.821,-0.648 1.898,-0.972 3.233,-0.972c1.263,0 2.288,0.321 3.076,0.962c0.788,0.642 1.182,1.555 1.182,2.74l0,4.365c0,0.495 0.037,0.96 0.112,1.396c0.075,0.436 0.194,0.869 0.356,1.299l-2.851,0Zm-2.608,-1.904c0.502,0 0.948,-0.124 1.338,-0.371c0.391,-0.248 0.655,-0.534 0.791,-0.86l0,-1.494l-1.592,0c-0.605,0 -1.064,0.152 -1.376,0.454c-0.313,0.303 -0.469,0.669 -0.469,1.099c0,0.351 0.117,0.635 0.351,0.85c0.235,0.214 0.554,0.322 0.957,0.322Z" style="fill:#309ddb;fill-rule:nonzero;"/><rect x="89.889" y="0.183" width="2.852" height="15.234" style="fill:#309ddb;fill-rule:nonzero;"/></g></g></g></svg>